<svg
  xmlns="http://www.w3.org/2000/svg"
  width="58"
  height="58"
  viewBox="0 0 58 58"
  fill="none"
>
  <path
    fillRule="evenodd"
    clipRule="evenodd"
    d="M26.3747 0.93378L29.156 29.1283L20.9373 2.01574C19.1305 2.547 17.4313 3.27176 15.8013 4.14077L29.156 29.1281L11.1806 7.2206C9.74734 8.38854 8.43558 9.71644 7.24819 11.153L29.1557 29.1284L4.16836 15.7574C3.29931 17.3874 2.57448 19.1055 2.04332 20.8934L29.1559 29.1284L0.961368 26.3471C0.872733 27.2686 0.820312 28.1901 0.820312 29.1284C0.820312 30.0667 0.872738 30.9881 0.961368 31.9097L29.1559 29.1284L2.04332 37.3634C2.57459 39.1507 3.29935 40.8694 4.16836 42.4994L29.1557 29.1284L7.24819 47.1038C8.43558 48.5371 9.74403 49.8656 11.1806 51.0362L29.156 29.1287L15.8013 54.116C17.4313 54.9851 19.1301 55.7099 20.9373 56.2411L29.156 29.1285L26.3747 57.323C27.2962 57.4117 28.2177 57.4641 29.156 57.4641C30.0943 57.4641 31.0157 57.4117 31.9373 57.323L29.156 29.1285L37.3747 56.2411C39.1815 55.7098 40.8807 54.9851 42.5107 54.116L29.156 29.1287L47.1314 51.0362C48.5646 49.8683 49.8764 48.5404 51.0638 47.1038L29.1563 29.1284L54.1436 42.4994C55.0127 40.8694 55.7375 39.1513 56.2687 37.3634L29.1561 29.1284L57.3506 31.9097C57.4393 30.9882 57.4917 30.0667 57.4917 29.1284C57.4917 28.1901 57.4393 27.2687 57.3506 26.3471L29.1561 29.1284L56.2687 20.8934C55.7374 19.1061 55.0126 17.3874 54.1436 15.7574L29.1563 29.1284L51.0638 11.153C49.8764 9.71976 48.568 8.39125 47.1314 7.2206L29.156 29.1281L42.5107 4.14077C40.8807 3.27172 39.1626 2.54689 37.3747 2.01574L29.156 29.1283L31.9373 0.93378C31.0158 0.845146 30.0943 0.792725 29.156 0.792725C28.2177 0.792725 27.2963 0.84515 26.3747 0.93378Z"
    fill="oklch(0.2 0.024 254)"
  />
</svg>
